<svg xmlns="http://www.w3.org/2000/svg" viewBox="0 0 397.65 52.42"><defs><style>.cls-1{fill:#231f20;}</style></defs><title>Asset 1</title><g id="Layer_2" data-name="Layer 2"><g id="Layer_1-2" data-name="Layer 1"><path class="cls-1" d="M39.6,1v50.4H31L11.52,24.05V51.41H0V1H8.64L28.08,28.37V1Z"/><path class="cls-1" d="M84.82,15.41v36H74V48c-2.38,2.73-5.91,4.39-10.73,4.39-9.43,0-17.21-8.28-17.21-19s7.78-19,17.21-19c4.82,0,8.35,1.66,10.73,4.39V15.41ZM74,33.41c0-5.4-3.6-8.78-8.57-8.78S56.88,28,56.88,33.41s3.6,8.79,8.57,8.79S74,38.81,74,33.41Z"/><path class="cls-1" d="M120.31,40.61c0,8.28-7.2,11.81-15,11.81-7.2,0-12.68-2.74-15.49-8.57l9.37-5.33a5.9,5.9,0,0,0,6.12,4.25c2.59,0,3.89-.79,3.89-2.23,0-4-17.72-1.87-17.72-14.33,0-7.85,6.63-11.81,14.11-11.81a15.75,15.75,0,0,1,14,7.71l-9.22,5a5.23,5.23,0,0,0-4.83-3.16c-1.87,0-3,.72-3,2C102.6,30,120.31,27.29,120.31,40.61Z"/><path class="cls-1" d="M162.29,15.41v36h-10.8V48c-2.38,2.73-5.91,4.39-10.73,4.39-9.43,0-17.21-8.28-17.21-19s7.78-19,17.21-19c4.82,0,8.35,1.66,10.73,4.39V15.41Zm-10.8,18c0-5.4-3.6-8.78-8.57-8.78s-8.57,3.38-8.57,8.78,3.6,8.79,8.57,8.79S151.49,38.81,151.49,33.41Z"/><path class="cls-1" d="M168,40,178,34.2c1.8,4.18,4.9,7,10.59,7,5.47,0,6.84-2.16,6.84-4.11,0-3.09-2.88-4.32-10.44-6.41S170.13,25,170.13,15.34,178.34,0,187.05,0c8.29,0,14.77,4,18.44,11.38l-9.72,5.69c-1.73-3.6-4.11-5.84-8.72-5.84-3.6,0-5.4,1.8-5.4,3.82,0,2.3,1.23,3.89,9.08,6.26,7.63,2.31,16.2,5,16.2,15.63,0,9.72-7.78,15.48-18.72,15.48C177.62,52.42,170.85,47.38,168,40Z"/><path class="cls-1" d="M231.69,42.77A9.42,9.42,0,0,0,238.61,40l8.64,5c-3.53,4.9-8.86,7.42-15.7,7.42-12.31,0-20-8.28-20-19s7.78-19,19.16-19c10.51,0,18.29,8.14,18.29,19a21.53,21.53,0,0,1-.43,4.32H223.05C224.42,41.48,227.73,42.77,231.69,42.77Zm6.63-13.1A7.41,7.41,0,0,0,230.69,24c-4.11,0-6.84,2-7.85,5.69Z"/><path class="cls-1" d="M291.74,15.41v36h-10.8V48c-2.37,2.73-5.9,4.39-10.73,4.39-9.43,0-17.21-8.28-17.21-19s7.78-19,17.21-19c4.83,0,8.36,1.66,10.73,4.39V15.41Zm-10.8,18c0-5.4-3.6-8.78-8.57-8.78S263.8,28,263.8,33.41s3.61,8.79,8.57,8.79S280.94,38.81,280.94,33.41Z"/><path class="cls-1" d="M321.26,14.69V26.93c-4.46-.72-10.8,1.08-10.8,8.21V51.41h-10.8v-36h10.8v6.41C311.9,17,316.72,14.69,321.26,14.69Z"/><path class="cls-1" d="M323.42,33.41a19,19,0,0,1,35.35-9.79l-9.43,5.47a7.45,7.45,0,0,0-7-4c-4.69,0-8.14,3.38-8.14,8.35s3.45,8.35,8.14,8.35a7.38,7.38,0,0,0,7-4l9.43,5.4a18.36,18.36,0,0,1-16.27,9.29A18.65,18.65,0,0,1,323.42,33.41Z"/><path class="cls-1" d="M397.65,29.31v22.1h-10.8V30.89c0-4.46-2.81-6.55-6.26-6.55-4,0-6.7,2.3-6.7,7.41V51.41h-10.8V1h10.8V18.79c1.95-2.66,5.55-4.39,10.3-4.39C391.46,14.4,397.65,19.59,397.65,29.31Z"/></g></g></svg>