<svg xmlns="http://www.w3.org/2000/svg" viewBox="0 0 494.76 83.06"><defs><style>.cls-1{fill:#231f20;}.cls-2{fill:#010101;}</style></defs><title>Asset 2</title><g id="Layer_2" data-name="Layer 2"><g id="Layer_1-2" data-name="Layer 1"><path class="cls-1" d="M39.6,18.05V68.46H31L11.52,41.09V68.46H0V18.05H8.64L28.08,45.41V18.05Z"/><path class="cls-1" d="M84.82,32.45v36H74V65.07c-2.38,2.74-5.91,4.39-10.73,4.39-9.43,0-17.21-8.28-17.21-19s7.78-19,17.21-19c4.82,0,8.35,1.66,10.73,4.4V32.45ZM74,50.45c0-5.4-3.6-8.78-8.57-8.78s-8.57,3.38-8.57,8.78,3.6,8.79,8.57,8.79S74,55.85,74,50.45Z"/><path class="cls-1" d="M120.31,57.65c0,8.29-7.2,11.81-15,11.81-7.2,0-12.68-2.73-15.49-8.56l9.37-5.33a5.91,5.91,0,0,0,6.12,4.24c2.59,0,3.88-.79,3.88-2.23,0-4-17.71-1.87-17.71-14.33,0-7.85,6.63-11.81,14.11-11.81a15.77,15.77,0,0,1,14,7.71l-9.22,5A5.24,5.24,0,0,0,105.62,41c-1.87,0-3,.72-3,2C102.6,47.07,120.31,44.33,120.31,57.65Z"/><path class="cls-1" d="M162.29,32.45v36h-10.8V65.07c-2.38,2.74-5.91,4.39-10.73,4.39-9.43,0-17.21-8.28-17.21-19s7.78-19,17.21-19c4.82,0,8.35,1.66,10.73,4.4V32.45Zm-10.8,18c0-5.4-3.6-8.78-8.57-8.78s-8.57,3.38-8.57,8.78,3.6,8.79,8.57,8.79S151.49,55.85,151.49,50.45Z"/><path class="cls-1" d="M168.05,57,178,51.25c1.8,4.17,4.9,7,10.59,7,5.47,0,6.84-2.16,6.84-4.1,0-3.1-2.88-4.32-10.44-6.41S170.13,42,170.13,32.38,178.34,17,187.06,17c8.28,0,14.76,4,18.43,11.38l-9.72,5.69c-1.73-3.6-4.11-5.83-8.71-5.83-3.6,0-5.41,1.8-5.41,3.81,0,2.31,1.23,3.89,9.08,6.27,7.63,2.3,16.2,5,16.2,15.62,0,9.72-7.78,15.48-18.72,15.48C177.62,69.46,170.85,64.42,168.05,57Z"/><path class="cls-1" d="M231.69,59.81a9.42,9.42,0,0,0,6.92-2.73l8.64,5c-3.53,4.89-8.86,7.41-15.7,7.41-12.31,0-20-8.28-20-19s7.78-19,19.16-19c10.51,0,18.29,8.14,18.29,19a21.38,21.38,0,0,1-.43,4.32H223.05C224.42,58.52,227.73,59.81,231.69,59.81Zm6.63-13.1A7.41,7.41,0,0,0,230.69,41c-4.11,0-6.84,2-7.85,5.69Z"/><path class="cls-1" d="M291.74,32.45v36h-10.8V65.07c-2.37,2.74-5.9,4.39-10.73,4.39-9.43,0-17.21-8.28-17.21-19s7.78-19,17.21-19c4.83,0,8.36,1.66,10.73,4.4V32.45Zm-10.8,18c0-5.4-3.6-8.78-8.56-8.78s-8.57,3.38-8.57,8.78,3.6,8.79,8.57,8.79S280.94,55.85,280.94,50.45Z"/><path class="cls-1" d="M321.26,31.73V44c-4.46-.72-10.8,1.08-10.8,8.21V68.46h-10.8v-36h10.8v6.41C311.9,34,316.72,31.73,321.26,31.73Z"/><path class="cls-1" d="M323.42,50.45a19,19,0,0,1,35.35-9.79l-9.43,5.47a7.45,7.45,0,0,0-7-4c-4.68,0-8.14,3.39-8.14,8.35s3.46,8.36,8.14,8.36a7.39,7.39,0,0,0,7-4l9.43,5.4a18.36,18.36,0,0,1-16.27,9.29A18.65,18.65,0,0,1,323.42,50.45Z"/><path class="cls-1" d="M397.66,46.35V68.46H386.85V47.93c0-4.46-2.8-6.55-6.26-6.55-4,0-6.7,2.31-6.7,7.42V68.46h-10.8V18.05h10.8V35.84c1.95-2.67,5.55-4.4,10.3-4.4C391.46,31.44,397.66,36.63,397.66,46.35Z"/><path class="cls-2" d="M493.94,11.82A13.77,13.77,0,0,0,486.73,4a14.12,14.12,0,0,0-8.33-1.16h0l-1-2.81L461.64,5.5l.95,2.6L428.75,19.92,430,23.44l-20,7,6.86,19,20-7L438.16,46l8.19-2.86a9,9,0,0,0-.11,1.38,8.61,8.61,0,0,0,6.48,8.28h0V60.9h-6.4l-5.56,22.16h5.11l4.33-17.29h2.52V83.06h5V65.77h2.51l4.34,17.29h5.1L464.08,60.9h-6.4V52.62a8.6,8.6,0,0,0,6-8.13,8.49,8.49,0,0,0-2.93-6.39L472,34.16l.95,2.6,15.73-5.49-1-2.81h0a13.9,13.9,0,0,0,5.73-6.07A13.53,13.53,0,0,0,493.94,11.82ZM424.79,41.5,420,43.19l-3.55-9.82,4.84-1.69Zm4.67-1.63-3.55-9.82,5.78-2,3.54,9.81Zm25.48,8.31a3.69,3.69,0,1,1,3.75-3.69A3.73,3.73,0,0,1,454.94,48.18Zm-13.77-8.43-6.09-16.87L464.24,12.7l6.1,16.87ZM476,30.54,468,8.46l6.4-2.24,8,22.09Zm13-10.24a8.89,8.89,0,0,1-3,3.45L480.1,7.52a9,9,0,0,1,4.5.85,8.9,8.9,0,0,1,4.67,5.08A8.73,8.73,0,0,1,488.91,20.3Z"/></g></g></svg>