<svg xmlns="http://www.w3.org/2000/svg" style="position:absolute; width: 0; height: 0"><symbol viewBox="0 0 93.038 93.038" id="icon-audio"><path d="M46.547 75.521a4.221 4.221 0 0 1-2.429 3.823 4.222 4.222 0 0 1-4.493-.571l-23.098-19.14H4.225A4.223 4.223 0 0 1 0 55.409V38.576a4.226 4.226 0 0 1 4.225-4.226h12.303l23.098-19.14a4.215 4.215 0 0 1 4.493-.569 4.224 4.224 0 0 1 2.429 3.823l-.001 57.057zm16.237-6.602a4.22 4.22 0 0 1-3.291-1.226l-.565-.567a4.222 4.222 0 0 1-.408-5.504 24.381 24.381 0 0 0 4.834-14.628c0-5.706-1.896-11.058-5.484-15.478a4.222 4.222 0 0 1 .291-5.65l.564-.565c.844-.844 1.975-1.304 3.199-1.231a4.23 4.23 0 0 1 3.061 1.545c4.977 6.09 7.606 13.484 7.606 21.38 0 7.354-2.325 14.354-6.725 20.24a4.228 4.228 0 0 1-3.082 1.684zm17.468 13.057a4.23 4.23 0 0 1-6.217.262l-.555-.555a4.226 4.226 0 0 1-.246-5.707 45.101 45.101 0 0 0 10.568-28.982 44.976 44.976 0 0 0-11.314-29.847 4.226 4.226 0 0 1 .17-5.783l.554-.555a4.113 4.113 0 0 1 3.115-1.242 4.225 4.225 0 0 1 3.036 1.417 54.173 54.173 0 0 1 13.675 36.01 54.286 54.286 0 0 1-12.786 34.982z"></path></symbol><symbol viewBox="0 0 492 492" id="icon-back"><path d="M464.344 207.418l.768.168H135.888l103.496-103.724c5.068-5.064 7.848-11.924 7.848-19.124 0-7.2-2.78-14.012-7.848-19.088L223.28 49.538c-5.064-5.064-11.812-7.864-19.008-7.864-7.2 0-13.952 2.78-19.016 7.844L7.844 226.914C2.76 231.998-.02 238.77 0 245.974c-.02 7.244 2.76 14.02 7.844 19.096l177.412 177.412c5.064 5.06 11.812 7.844 19.016 7.844 7.196 0 13.944-2.788 19.008-7.844l16.104-16.112c5.068-5.056 7.848-11.808 7.848-19.008 0-7.196-2.78-13.592-7.848-18.652L134.72 284.406h329.992c14.828 0 27.288-12.78 27.288-27.6v-22.788c0-14.82-12.828-26.6-27.656-26.6z"></path></symbol><symbol viewBox="0 0 494.76 83.06" id="icon-logo"><g id="logo-Layer_2" data-name="Layer 2"><g id="logo-Layer_1-2" data-name="Layer 1"><path class="cls-1" d="M39.6 18.05v50.41H31L11.52 41.09v27.37H0V18.05h8.64l19.44 27.36V18.05zM84.82 32.45v36H74v-3.38c-2.38 2.74-5.91 4.39-10.73 4.39-9.43 0-17.21-8.28-17.21-19s7.78-19 17.21-19c4.82 0 8.35 1.66 10.73 4.4v-3.41zM74 50.45c0-5.4-3.6-8.78-8.57-8.78s-8.57 3.38-8.57 8.78 3.6 8.79 8.57 8.79S74 55.85 74 50.45zM120.31 57.65c0 8.29-7.2 11.81-15 11.81-7.2 0-12.68-2.73-15.49-8.56l9.37-5.33a5.91 5.91 0 0 0 6.12 4.24c2.59 0 3.88-.79 3.88-2.23 0-4-17.71-1.87-17.71-14.33 0-7.85 6.63-11.81 14.11-11.81a15.77 15.77 0 0 1 14 7.71l-9.22 5a5.24 5.24 0 0 0-4.75-3.15c-1.87 0-3 .72-3 2-.02 4.07 17.69 1.33 17.69 14.65zM162.29 32.45v36h-10.8v-3.38c-2.38 2.74-5.91 4.39-10.73 4.39-9.43 0-17.21-8.28-17.21-19s7.78-19 17.21-19c4.82 0 8.35 1.66 10.73 4.4v-3.41zm-10.8 18c0-5.4-3.6-8.78-8.57-8.78s-8.57 3.38-8.57 8.78 3.6 8.79 8.57 8.79 8.57-3.39 8.57-8.79zM168.05 57l9.95-5.75c1.8 4.17 4.9 7 10.59 7 5.47 0 6.84-2.16 6.84-4.1 0-3.1-2.88-4.32-10.44-6.41S170.13 42 170.13 32.38 178.34 17 187.06 17c8.28 0 14.76 4 18.43 11.38l-9.72 5.69c-1.73-3.6-4.11-5.83-8.71-5.83-3.6 0-5.41 1.8-5.41 3.81 0 2.31 1.23 3.89 9.08 6.27 7.63 2.3 16.2 5 16.2 15.62 0 9.72-7.78 15.48-18.72 15.48-10.59.04-17.36-5-20.16-12.42zM231.69 59.81a9.42 9.42 0 0 0 6.92-2.73l8.64 5c-3.53 4.89-8.86 7.41-15.7 7.41-12.31 0-20-8.28-20-19s7.78-19 19.16-19c10.51 0 18.29 8.14 18.29 19a21.38 21.38 0 0 1-.43 4.32h-25.52c1.37 3.71 4.68 5 8.64 5zm6.63-13.1a7.41 7.41 0 0 0-7.63-5.71c-4.11 0-6.84 2-7.85 5.69zM291.74 32.45v36h-10.8v-3.38c-2.37 2.74-5.9 4.39-10.73 4.39-9.43 0-17.21-8.28-17.21-19s7.78-19 17.21-19c4.83 0 8.36 1.66 10.73 4.4v-3.41zm-10.8 18c0-5.4-3.6-8.78-8.56-8.78s-8.57 3.38-8.57 8.78 3.6 8.79 8.57 8.79 8.56-3.39 8.56-8.79zM321.26 31.73V44c-4.46-.72-10.8 1.08-10.8 8.21v16.25h-10.8v-36h10.8v6.41c1.44-4.87 6.26-7.14 10.8-7.14zM323.42 50.45a19 19 0 0 1 35.35-9.79l-9.43 5.47a7.45 7.45 0 0 0-7-4c-4.68 0-8.14 3.39-8.14 8.35s3.46 8.36 8.14 8.36a7.39 7.39 0 0 0 7-4l9.43 5.4a18.36 18.36 0 0 1-16.27 9.29 18.65 18.65 0 0 1-19.08-19.08zM397.66 46.35v22.11h-10.81V47.93c0-4.46-2.8-6.55-6.26-6.55-4 0-6.7 2.31-6.7 7.42v19.66h-10.8V18.05h10.8v17.79c1.95-2.67 5.55-4.4 10.3-4.4 7.27 0 13.47 5.19 13.47 14.91z"></path><path class="cls-2" d="M493.94 11.82A13.77 13.77 0 0 0 486.73 4a14.12 14.12 0 0 0-8.33-1.16l-1-2.81-15.76 5.47.95 2.6-33.84 11.82 1.25 3.52-20 7 6.86 19 20-7 1.3 3.56 8.19-2.86a9 9 0 0 0-.11 1.38 8.61 8.61 0 0 0 6.48 8.28v8.1h-6.4l-5.56 22.16h5.11l4.33-17.29h2.52v17.29h5V65.77h2.51l4.34 17.29h5.1l-5.59-22.16h-6.4v-8.28a8.6 8.6 0 0 0 6-8.13 8.49 8.49 0 0 0-2.93-6.39L472 34.16l.95 2.6 15.73-5.49-1-2.81a13.9 13.9 0 0 0 5.73-6.07 13.53 13.53 0 0 0 .53-10.57zM424.79 41.5L420 43.19l-3.55-9.82 4.84-1.69zm4.67-1.63l-3.55-9.82 5.78-2 3.54 9.81zm25.48 8.31a3.69 3.69 0 1 1 3.75-3.69 3.73 3.73 0 0 1-3.75 3.69zm-13.77-8.43l-6.09-16.87 29.16-10.18 6.1 16.87zM476 30.54l-8-22.08 6.4-2.24 8 22.09zm13-10.24a8.89 8.89 0 0 1-3 3.45l-5.9-16.23a9 9 0 0 1 4.5.85 8.9 8.9 0 0 1 4.67 5.08 8.73 8.73 0 0 1-.36 6.85z"></path></g></g></symbol><symbol viewBox="0 0 50 50" id="icon-search"><path d="M21 3C11.621 3 4 10.621 4 20s7.621 17 17 17c3.71 0 7.14-1.195 9.938-3.219l13.156 13.125 2.812-2.812-13-13.032A16.923 16.923 0 0 0 38 20c0-9.379-7.621-17-17-17zm0 2c8.297 0 15 6.703 15 15s-6.703 15-15 15S6 28.297 6 20 12.703 5 21 5z"></path></symbol><symbol viewBox="0 0 232.153 232.153" id="icon-video"><path d="M203.791 99.628L49.307 2.294C44.74-.425 39.069.028 34.786.028 17.654.028 17.73 13.255 17.73 16.606v198.94c0 2.833-.075 16.579 17.056 16.579 4.283 0 9.955.451 14.521-2.267l154.483-97.333c12.68-7.545 10.489-16.449 10.489-16.449s2.192-8.904-10.488-16.448z" fill-rule="evenodd" clip-rule="evenodd"></path></symbol></svg>